<svg width="221" height="443" viewBox="0 0 221 443" fill="none" xmlns="http://www.w3.org/2000/svg">
<g clip-path="url(#clip0_21_60)">
<path opacity="0.94" d="M198.682 112.633C198.682 113.755 198.659 114.86 198.611 115.974C197.192 154.211 171.306 186.292 136.19 197.005C128.058 199.483 119.432 200.824 110.5 200.824C105.308 200.824 100.227 200.377 95.2786 199.506C53.8811 192.276 22.3096 156.078 22.3096 112.633C22.3096 95.5302 27.2108 79.5483 35.6722 66.0132C46.6117 48.51 63.5267 35.1004 83.5471 28.6622C92.0399 25.9332 101.105 24.451 110.5 24.451C146.659 24.451 177.799 46.3221 191.389 77.5251C196.086 88.2921 198.69 100.165 198.69 112.633H198.682Z" fill="url(#paint0_linear_21_60)"/>
<path d="M106.328 33.8139C110.885 33.2179 115.833 32.5749 119.134 29.3754C117.472 29.0931 116.194 27.3835 116.39 25.7054C111.52 25.4152 106.611 25.9093 101.906 27.1718C99.1531 27.9011 96.432 28.9127 93.5853 29.1401C91.272 29.3205 88.9508 28.9833 86.6217 28.8108C85.5944 28.7324 84.5828 28.6853 83.5555 28.6618C63.543 35.1 46.6201 48.5097 35.6807 66.0128C35.6807 66.0128 35.6859 66.018 35.6963 66.0285C38.1822 68.4516 42.7541 68.2556 44.5342 71.2434C45.7654 73.2979 45.3497 76.4739 47.4749 77.5953C49.3334 78.5912 51.6468 76.9366 52.3996 74.9604C52.7604 74.0116 52.9015 72.9686 53.4348 72.0981C53.7249 71.6276 54.1092 71.2198 54.5013 70.8121C57.7556 67.3695 60.7748 63.7073 63.5508 59.8647C63.8802 59.4021 64.2174 58.9237 64.4683 58.4062C68.0521 60.2647 72.224 61.6527 75.7528 59.8726C77.8388 58.8218 79.266 56.8378 80.5991 54.9243C81.8617 53.1364 83.1556 50.8465 82.144 48.9174C81.1089 46.957 78.4348 46.7531 76.2234 46.8315C78.2152 46.2826 80.2776 45.6787 81.8146 44.2986C83.0223 43.2085 83.7986 41.7107 84.9906 40.5893C86.1826 39.4679 88.1352 38.8327 89.4134 39.8365C91.6562 41.5774 89.7585 46.259 92.3542 47.4196C94.0951 48.196 95.9693 46.1492 95.9379 44.2437C95.9066 42.3459 94.7381 40.6756 93.9226 38.9582C96.8241 35.3901 101.796 34.4256 106.352 33.8139H106.328ZM73.1572 52.5012C72.6945 53.4814 71.6358 54.0147 70.6634 54.4695C68.7343 55.3713 66.8052 56.281 64.8761 57.1828C64.8996 57.0652 64.9153 56.9476 64.9232 56.8299C64.9859 55.7007 64.1939 54.4538 63.0646 54.4617C62.2961 54.4617 61.6531 55.0028 61.0414 55.4576C57.9282 57.7239 53.5838 58.1631 50.0784 56.5633C50.4391 54.8851 51.7958 53.4657 53.4583 53.0423C55.7638 52.4541 58.6888 53.5363 60.3278 51.7954C61.5668 50.478 61.2375 48.2352 62.3902 46.8315C63.2215 45.812 64.6801 45.4905 65.9818 45.6866C67.2836 45.8748 68.4599 46.5021 69.6205 47.1295C70.6713 47.6941 71.7456 48.2822 72.5063 49.1841C73.267 50.0937 73.6669 51.419 73.1572 52.5012Z" fill="url(#paint1_linear_21_60)"/>
<path d="M96.0717 123.839C96.5736 124.89 97.0755 125.925 97.5774 126.968C96.5814 126.231 95.8443 124.921 96.0717 123.839Z" fill="url(#paint2_linear_21_60)"/>
<path d="M100.627 133.328C99.6073 131.211 98.5956 129.094 97.5684 126.969C97.6468 127.031 97.7252 127.086 97.8115 127.141C99.223 128.035 101.003 128.466 102.023 129.776C103.058 131.093 102.242 133.728 100.619 133.328H100.627Z" fill="url(#paint3_linear_21_60)"/>
<path d="M198.681 112.634C198.681 113.755 198.658 114.861 198.611 115.974C196.399 115.841 194.227 115.151 192.345 113.959C190.165 123.91 189.498 134.199 190.369 144.354C187.467 144.566 184.417 144.746 181.782 143.515C179.155 142.276 177.195 139.092 178.332 136.41C175.532 138.065 172.105 135.752 168.859 135.43C165.416 135.101 162.24 137.069 159.001 138.292C153.849 140.237 148.015 140.316 142.823 138.504C141.765 140.488 143.263 143.052 145.333 143.946C147.395 144.832 149.748 144.511 151.967 144.142C154.179 143.774 156.508 143.382 158.625 144.135C159.487 144.448 160.334 144.997 160.727 145.836C161.174 146.769 160.993 147.883 160.687 148.879C159.001 154.353 154.218 158.187 149.677 161.677C147.842 163.081 145.67 164.571 143.412 164.061C142.29 163.802 141.349 163.073 140.439 162.375C136.087 158.995 131.743 155.623 127.391 152.243C126.606 151.631 125.799 150.996 125.328 150.126C124.818 149.177 124.771 148.048 124.732 146.965C124.599 143.429 124.473 139.9 124.34 136.379C124.317 135.681 124.238 134.873 123.681 134.45C123.109 134.011 122.293 134.175 121.58 134.207C117.886 134.371 115.126 129.455 117.188 126.388C121.211 126.757 125.273 126.647 129.273 126.067C129.014 123.142 127.877 120.311 126.042 118.021C126.434 119.55 124.858 120.891 123.328 121.283C121.799 121.66 120.129 121.534 118.733 122.248C116.631 123.33 115.863 125.871 114.836 127.996C113.808 130.121 111.66 132.285 109.425 131.517C110.821 132.105 111.973 133.25 112.569 134.646C112.812 135.893 110.868 136.575 109.872 135.799C108.868 135.022 108.664 133.611 108.562 132.34C108.452 131.078 108.303 129.682 107.347 128.835C106.86 128.412 106.225 128.2 105.621 127.98C102.359 126.788 99.2851 125.102 96.5248 122.993C96.2738 123.244 96.1248 123.534 96.0621 123.848C95.9601 123.628 95.8504 123.416 95.7484 123.197C96.2189 125.11 93.9056 126.647 91.9372 126.569C89.9689 126.49 88.1261 125.51 86.1656 125.408C83.8052 125.298 81.6094 126.451 79.351 127.165C77.1082 127.878 74.3321 128.051 72.6932 126.373C71.5404 123.918 72.1835 120.742 74.191 118.923C76.1985 117.103 79.4216 116.782 81.7506 118.178C80.6606 116.46 79.5862 114.751 78.504 113.041C80.6292 113.316 82.8249 112.971 84.7541 112.045C85.0756 110.799 83.7895 109.732 82.5662 109.34C81.3428 108.94 79.9391 108.775 79.1079 107.795C77.6806 106.093 79.2098 103.412 81.1781 102.392C81.0135 103.38 82.8171 103.804 83.1073 102.839C81.5624 101.741 81.1311 99.3651 82.1897 97.7889C83.2406 96.2205 85.601 95.7108 87.2086 96.7145C88.7691 100.941 89.0122 105.654 87.8987 110.03C90.6433 107.387 95.0505 108.03 98.8146 108.642C102.579 109.254 107.205 109.293 109.299 106.117C109.919 105.176 110.217 104.062 110.64 103.012C111.667 100.432 113.479 98.181 115.777 96.6283C113.565 96.6832 111.346 96.7381 109.127 96.7929C109.142 94.4482 109.166 92.0956 109.182 89.7431C107.221 91.1389 106.782 93.8444 106.79 96.244C106.798 98.6436 107.064 101.192 105.974 103.333C104.876 105.474 101.7 106.721 100.038 104.98C99.8105 102.988 98.6029 101.137 96.8698 100.126C95.1289 99.1142 92.447 97.8987 93.2861 96.0793C93.686 95.201 94.7603 94.903 95.6543 94.5345C101.63 92.0564 103.175 82.8422 109.519 81.5561C113.887 80.67 117.823 84.191 120.788 87.5317C121.062 84.34 123.423 81.4385 126.489 80.5131C127.54 80.2073 128.645 80.1054 129.649 79.6662C130.77 79.1722 131.696 78.239 132.182 77.1176C130.441 75.51 130.072 72.6242 131.359 70.6323C132.26 71.8243 133.766 72.5457 135.264 72.4987C135.413 69.0718 132.864 66.2173 131.351 63.1355C129.837 60.0536 130.057 55.27 133.382 54.3917C133.609 56.1326 135.593 57.4187 137.279 56.9011C138.385 50.1885 137.044 43.1072 133.57 37.2493C128.998 37.5159 124.395 34.7634 122.466 30.615L122.191 30.3484C126.771 30.3406 131.366 30.3406 135.946 30.3406C137.452 30.3406 139.028 30.3563 140.345 31.0699C141.302 31.5874 142.047 32.4265 142.776 33.2264C148.078 39.0137 154.39 43.86 161.346 47.4908C167.361 50.6354 173.995 52.9723 178.826 57.7245C179.555 58.446 180.269 59.2616 180.551 60.2496C181.272 62.8296 178.904 65.4331 179.304 68.0837C179.743 71.0323 183.123 72.3262 185.805 73.6279C187.86 74.6239 189.742 75.9413 191.388 77.5097C196.086 88.2766 198.689 100.149 198.689 112.618L198.681 112.634Z" fill="url(#paint4_linear_21_60)"/>
<path d="M154.617 163.81C153.739 167.433 152.861 171.04 151.99 174.663C151.81 175.384 151.63 176.129 151.284 176.788C150.563 178.16 149.199 179.054 147.889 179.886C145.779 181.242 143.678 182.583 141.568 183.94C140.188 184.818 138.753 185.775 138.008 187.233C137.318 188.614 137.357 190.229 137.279 191.774C137.193 193.499 136.84 195.303 136.197 196.957C128.065 199.436 119.438 200.776 110.507 200.776C105.315 200.776 100.234 200.329 95.2854 199.459C95.0579 196.824 95.0579 194.072 93.4739 192.056C92.4152 190.707 90.6273 189.461 91.035 187.798C91.2311 186.99 91.9761 186.285 91.8584 185.453C91.7879 184.944 91.3958 184.544 91.0821 184.12C89.8117 182.426 89.6157 180.121 88.3766 178.419C87.4748 177.188 86.1025 176.396 84.7693 175.643C81.6247 173.847 78.2449 171.997 74.6376 172.232C71.2969 172.451 68.1053 174.451 64.8117 173.855C62.2709 173.393 60.2791 171.479 58.4519 169.652C56.8208 168.029 55.1818 166.405 53.5507 164.774C52.8606 164.084 52.1391 163.347 51.8647 162.414C51.6765 161.779 51.7157 161.089 51.7471 160.422C52.0607 154.776 52.3744 149.13 52.6881 143.476C52.7116 143.005 52.7508 142.503 53.0253 142.103C53.3782 141.609 54.0291 141.437 54.625 141.303C59.338 140.229 64.5294 139.053 67.4074 135.163C68.0033 134.355 68.5444 133.399 69.4698 133.015C70.1442 132.732 70.9205 132.811 71.642 132.897C76.0805 133.422 80.5269 133.94 84.9654 134.473L83.4676 134.63C86.0868 136.104 90.3763 134.81 91.6467 137.531C92.0859 138.457 91.9369 139.539 92.0074 140.558C92.3133 144.895 97.5281 148.079 101.535 146.393C103.849 145.42 105.684 143.17 108.185 143.029C111.071 142.872 113.29 145.562 116.059 146.369C117.007 146.644 118.027 146.699 118.944 147.075C123.108 148.792 122.371 155.317 125.641 158.407C127.939 160.579 132.017 160.869 133.217 163.786C133.507 164.515 133.609 165.386 134.228 165.88C135.044 166.547 136.259 166.147 137.31 166.28C139.216 166.523 140.525 168.554 142.439 168.789C143.513 168.923 144.548 168.46 145.536 168.005C148.563 166.594 151.59 165.198 154.625 163.786L154.617 163.81Z" fill="url(#paint5_linear_21_60)"/>
<path d="M110.5 0C49.3256 0.870452 0 50.7215 0 112.108L0.196048 114.327C1.7958 132.685 5.75596 150.761 11.9746 168.107L110.5 442.77L209.026 168.107C215.245 150.761 219.205 132.685 220.805 114.327L221.001 112.108C221.001 50.7215 171.675 0.870452 110.5 0ZM209.622 116.319C208.03 159.332 178.905 195.42 139.406 207.466C130.254 210.257 120.562 211.763 110.508 211.763C104.674 211.763 98.9493 211.261 93.3893 210.281C46.8162 202.149 11.308 161.426 11.308 112.563C11.308 93.3266 16.8209 75.3451 26.341 60.1161C38.6449 40.4251 57.6773 25.3451 80.1914 18.0991C89.7507 15.0251 99.9452 13.3626 110.508 13.3626C151.176 13.3626 186.214 37.9705 201.498 73.0709C206.783 85.1789 209.708 98.5336 209.708 112.563C209.708 113.818 209.685 115.072 209.63 116.319H209.622Z" fill="#003566"/>
</g>
<defs>
<linearGradient id="paint0_linear_21_60" x1="-0.447662" y1="112.633" x2="175.925" y2="112.633" gradientUnits="userSpaceOnUse">
<stop stop-color="#001D3D"/>
<stop offset="1" stop-color="#003566" stop-opacity="0.7"/>
</linearGradient>
<linearGradient id="paint1_linear_21_60" x1="35.6728" y1="51.7562" x2="119.126" y2="51.7562" gradientUnits="userSpaceOnUse">
<stop stop-color="#FFC300"/>
<stop offset="1" stop-color="#FFD60A"/>
</linearGradient>
<linearGradient id="paint2_linear_21_60" x1="96.0247" y1="125.4" x2="97.5695" y2="125.4" gradientUnits="userSpaceOnUse">
<stop stop-color="#FFC300"/>
<stop offset="1" stop-color="#FFD60A"/>
</linearGradient>
<linearGradient id="paint3_linear_21_60" x1="97.5684" y1="130.168" x2="102.485" y2="130.168" gradientUnits="userSpaceOnUse">
<stop stop-color="#FFC300"/>
<stop offset="1" stop-color="#FFD60A"/>
</linearGradient>
<linearGradient id="paint4_linear_21_60" x1="72.1286" y1="97.2556" x2="198.681" y2="97.2556" gradientUnits="userSpaceOnUse">
<stop stop-color="#FFC300"/>
<stop offset="1" stop-color="#FFD60A"/>
</linearGradient>
<linearGradient id="paint5_linear_21_60" x1="51.7078" y1="166.805" x2="154.617" y2="166.805" gradientUnits="userSpaceOnUse">
<stop stop-color="#FFC300"/>
<stop offset="1" stop-color="#FFD60A"/>
</linearGradient>
<clipPath id="clip0_21_60">
<rect width="221.001" height="442.762" fill="white"/>
</clipPath>
</defs>
</svg>
